HIERARCHY
ROOT SpineBase
{
  OFFSET 0.000000 0.000000 0.000000
  CHANNELS 6 Xposition Yposition Zposition Zrotation Xrotation Yrotation
  JOINT SpineMid
  {
    OFFSET 0.000000 29.282390 0.000000
    CHANNELS 3 Zrotation Xrotation Yrotation
    JOINT SpineShoulder
    {
      OFFSET -0.028771 21.805769 -1.031490
      CHANNELS 3 Zrotation Xrotation Yrotation
      JOINT Neck
      {
        OFFSET -0.027894 7.237749 -0.700605
        CHANNELS 3 Zrotation Xrotation Yrotation
        JOINT Head
        {
          OFFSET -2.288416 11.971426 4.706191
          CHANNELS 3 Zrotation Xrotation Yrotation
          End Site
          {
            OFFSET 0 0 0
          }
        }
      }
      JOINT ShoulderLeft
      {
        OFFSET -11.351457 -4.564775 9.086630
        CHANNELS 3 Zrotation Xrotation Yrotation
        JOINT ElbowLeft
        {
          OFFSET -2.273839 -27.615915 -5.962682
          CHANNELS 3 Zrotation Xrotation Yrotation
          JOINT WristLeft
          {
            OFFSET -8.096527 -18.693767 -3.033245
            CHANNELS 3 Zrotation Xrotation Yrotation
            JOINT HandLeft
            {
              OFFSET -2.935836 -5.858264 -0.768597
              CHANNELS 3 Zrotation Xrotation Yrotation
              JOINT HandTipLeft
              {
                OFFSET -1.085836 -3.578084 1.156578
                CHANNELS 3 Zrotation Xrotation Yrotation
                End Site
                {
                  OFFSET 0 0 0
                }
              }
              JOINT ThumbLeft
              {
                OFFSET -1.962925 1.538057 1.323105
                CHANNELS 3 Zrotation Xrotation Yrotation
                End Site
                {
                  OFFSET 0 0 0
                }
              }
            }
          }
        }
      }
      JOINT ShoulderRight
      {
        OFFSET 8.219057 -2.189031 -11.804877
        CHANNELS 3 Zrotation Xrotation Yrotation
        JOINT ElbowRight
        {
          OFFSET 2.626339 -24.640244 -1.902697
          CHANNELS 3 Zrotation Xrotation Yrotation
          JOINT WristRight
          {
            OFFSET -16.404691 10.072281 -8.151450
            CHANNELS 3 Zrotation Xrotation Yrotation
            JOINT HandRight
            {
              OFFSET -9.516875 6.576332 -4.923325
              CHANNELS 3 Zrotation Xrotation Yrotation
              JOINT HandTipRight
              {
                OFFSET -2.376592 4.532282 -2.743054
                CHANNELS 3 Zrotation Xrotation Yrotation
                End Site
                {
                  OFFSET 0 0 0
                }
              }
              JOINT ThumbRight
              {
                OFFSET -1.240935 1.016861 -1.538023
                CHANNELS 3 Zrotation Xrotation Yrotation
                End Site
                {
                  OFFSET 0 0 0
                }
              }
            }
          }
        }
      }
    }
  }
  JOINT HipLeft
  {
    OFFSET -4.379157 0.352328 2.682561
    CHANNELS 3 Zrotation Xrotation Yrotation
    JOINT KneeLeft
    {
      OFFSET 1.112853 -33.376381 -1.656983
      CHANNELS 3 Zrotation Xrotation Yrotation
      JOINT AnkleLeft
      {
        OFFSET 6.153245 -31.093374 6.032217
        CHANNELS 3 Zrotation Xrotation Yrotation
        JOINT FootLeft
        {
          OFFSET -6.095659 -2.694321 -8.955362
          CHANNELS 3 Zrotation Xrotation Yrotation
          End Site
          {
            OFFSET 0 0 0
          }
        }
      }
    }
  }
  JOINT HipRight
  {
    OFFSET 4.310951 1.774230 -8.912951
    CHANNELS 3 Zrotation Xrotation Yrotation
    JOINT KneeRight
    {
      OFFSET 4.447347 -30.317203 0.362653
      CHANNELS 3 Zrotation Xrotation Yrotation
      JOINT AnkleRight
      {
        OFFSET 6.453388 -32.885154 1.336034
        CHANNELS 3 Zrotation Xrotation Yrotation
        JOINT FootRight
        {
          OFFSET -2.815294 -6.325010 3.655599
          CHANNELS 3 Zrotation Xrotation Yrotation
          End Site
          {
            OFFSET 0 0 0
          }
        }
      }
    }
  }
}
MOTION
Frames: 15
Frame Time: 0.033333
8.441155 70.652907 343.185617 1.836573 0.726444 54.878089 0.601315 -0.069552 -54.786514 0.057104 0.713526 0.108548 1.502610 9.439945 0.155997 0.000000 0.000000 0.000000 -3.677359 5.485565 -0.522919 18.962844 -29.910754 14.655895 3.239435 -8.995807 7.679067 12.184726 58.045151 -36.231590 0.000000 0.000000 0.000000 0.000000 0.000000 0.000000 -18.514233 31.165887 8.847963 -14.998256 -17.099953 -14.530057 -28.244513 13.298522 -25.323192 40.144522 4.254658 24.101811 0.000000 0.000000 0.000000 0.000000 0.000000 0.000000 -4.184973 -2.926272 -55.151858 0.603654 8.759618 1.373715 -2.677429 -5.520575 1.682108 0.000000 0.000000 0.000000 -1.390609 -0.929969 -54.991484 -0.396826 1.483391 0.264412 -7.375734 16.827228 -11.265688 0.000000 0.000000 0.000000
8.080887 70.639288 343.199932 2.236170 0.309328 52.358215 0.682026 0.322301 -52.265273 0.056779 0.583079 0.117239 -3.151239 11.437379 2.463728 0.000000 0.000000 0.000000 -3.709442 4.029382 -0.439677 21.294780 -31.245487 16.670330 0.208454 -1.583782 3.749856 9.042040 50.183027 -28.304186 0.000000 0.000000 0.000000 0.000000 0.000000 0.000000 -27.760196 34.493157 13.287061 -9.882357 -20.820019 -17.328534 -33.039617 15.927850 -15.074202 43.815456 -4.120666 15.817417 0.000000 0.000000 0.000000 0.000000 0.000000 0.000000 -4.439654 -3.446783 -52.677776 0.372145 9.665354 1.430718 -2.810956 -5.558344 1.540090 0.000000 0.000000 0.000000 -0.371591 -0.198993 -52.346697 -0.528783 0.670449 0.157403 -9.781422 13.846188 -10.820587 0.000000 0.000000 0.000000
7.722743 70.280933 343.350667 2.419082 -0.156365 49.827374 0.774299 0.825183 -49.743645 -0.031887 0.312106 0.107526 -5.978020 12.348841 4.038362 0.000000 0.000000 0.000000 -3.671749 1.732285 -0.182526 22.687410 -34.166234 19.804810 -2.844620 3.914068 2.099635 18.099865 47.312162 -31.322222 0.000000 0.000000 0.000000 0.000000 0.000000 0.000000 -38.327678 36.507298 18.755584 1.120761 -27.277297 -15.616378 -33.835274 15.497520 -11.955846 45.385675 -8.440301 12.793767 0.000000 0.000000 0.000000 0.000000 0.000000 0.000000 -3.804248 -3.957581 -50.177449 -0.269049 9.691553 1.463349 -2.832423 -5.259331 1.284049 0.000000 0.000000 0.000000 0.875753 0.578285 -49.690745 -0.673004 -0.287697 0.032087 -11.484582 9.810464 -9.766306 0.000000 0.000000 0.000000
7.362471 69.825273 343.531971 2.484588 -0.413594 46.591636 0.862188 1.286210 -46.521016 -0.049305 0.132397 0.101805 -7.864682 11.683263 4.886268 0.000000 0.000000 0.000000 -3.356725 -5.003688 0.285236 28.596402 -39.224453 27.594930 -4.697489 7.061823 3.127854 33.577819 44.161785 -42.145245 0.000000 0.000000 0.000000 0.000000 0.000000 0.000000 -53.540505 35.885026 25.731686 21.303489 -34.903146 -7.992742 -34.362753 14.921002 -10.278907 43.065905 -11.810008 9.717732 0.000000 0.000000 0.000000 0.000000 0.000000 0.000000 -4.118203 -4.503851 -46.977314 0.238835 10.782645 1.521863 -3.237284 -5.367531 0.751783 0.000000 0.000000 0.000000 1.954348 1.344927 -46.341395 -0.869779 -1.296917 -0.104811 -11.987003 2.064953 -6.889027 0.000000 0.000000 0.000000
7.098488 69.387911 343.698279 2.521867 -0.413640 42.995117 0.918957 1.672531 -42.939383 0.024997 0.051020 0.107442 -8.993166 9.465540 4.948203 0.000000 0.000000 0.000000 -0.757325 -5.000647 -0.158035 25.651416 -50.983221 39.677298 0.235406 9.783278 -0.676468 47.800108 52.234568 -61.698858 0.000000 0.000000 0.000000 0.000000 0.000000 0.000000 -67.360133 32.115613 30.087884 42.328792 -37.894316 0.462220 -31.684060 12.831503 -8.559694 42.973309 -14.521131 9.703589 0.000000 0.000000 0.000000 0.000000 0.000000 0.000000 -4.802013 -5.513946 -43.453905 0.672315 12.251079 1.555815 -3.581250 -5.688388 0.985978 0.000000 0.000000 0.000000 2.623158 2.103083 -42.647141 -0.978150 -2.189784 -0.224648 -8.656718 -0.223571 -4.224455 0.000000 0.000000 0.000000
6.919926 69.021193 343.791979 2.445615 -0.122569 39.020004 0.881520 1.954260 -38.983604 0.150822 0.019150 0.116105 -8.595029 6.312422 4.100602 0.000000 0.000000 0.000000 -3.092248 -1.545553 -0.083812 16.728280 -64.715118 43.644524 8.659097 9.536406 -7.331938 75.650226 58.561670 -92.387935 0.000000 0.000000 0.000000 0.000000 0.000000 0.000000 -78.210889 27.366320 31.577287 65.307919 -38.422400 10.487062 -27.036155 10.593859 -4.369477 41.738920 -16.778289 10.757372 0.000000 0.000000 0.000000 0.000000 0.000000 0.000000 -5.456454 -7.174531 -39.609830 0.789078 13.889306 1.586433 -3.806902 -6.078238 1.718227 0.000000 0.000000 0.000000 3.211180 2.697542 -38.558729 -1.343688 -3.278120 -0.398358 -4.397373 -4.871631 0.091124 0.000000 0.000000 0.000000
6.370679 68.810770 344.234071 1.786768 -0.030498 34.413692 1.080970 2.153728 -34.398435 0.403627 0.158217 0.123980 -6.991634 2.092560 2.627499 0.000000 0.000000 0.000000 -7.085245 5.693273 0.363333 -53.429092 -72.019939 -7.690605 16.213862 7.330126 -11.011739 102.202866 65.374648 -113.070928 0.000000 0.000000 0.000000 0.000000 0.000000 0.000000 -85.924232 22.446890 30.555648 84.465140 -35.032517 19.344023 -20.681064 7.265472 -5.511744 39.863607 -12.457676 14.794006 0.000000 0.000000 0.000000 0.000000 0.000000 0.000000 -4.518936 -9.005289 -35.107546 0.376378 15.050161 1.692057 -4.074969 -6.558028 2.817088 0.000000 0.000000 0.000000 5.359543 3.510086 -33.758288 -2.440867 -5.204827 -0.748610 -4.461753 3.797882 -3.673020 0.000000 0.000000 0.000000
6.291062 68.603366 344.160091 1.613200 0.692546 28.606002 0.707725 2.078626 -28.598920 0.468088 0.182852 0.123861 -3.632615 -2.250253 0.591344 0.000000 0.000000 0.000000 -13.287955 16.438213 1.979304 -84.949131 -38.286482 -24.778143 19.458206 -3.612323 -8.986883 67.700940 71.425840 -66.709217 0.000000 0.000000 0.000000 0.000000 0.000000 0.000000 -89.168703 18.770219 27.864534 97.839854 -30.215958 26.234225 -11.546319 2.534969 -5.671192 33.215564 -7.213212 15.638147 0.000000 0.000000 0.000000 0.000000 0.000000 0.000000 -4.688939 -11.696405 -29.464126 0.474170 17.144037 1.731753 -4.374869 -7.056909 3.896385 0.000000 0.000000 0.000000 5.297629 4.260730 -27.815677 -2.423038 -6.382207 -0.924827 -2.111826 7.883066 -4.234971 0.000000 0.000000 0.000000
6.650251 68.462595 343.686912 1.796954 1.739656 24.445559 0.425980 1.570176 -24.430805 0.533933 0.273512 0.148318 0.623954 -4.831982 -1.375287 0.000000 0.000000 0.000000 -19.473049 27.476663 4.396546 -76.161766 -7.658824 -20.237197 14.038756 -1.808483 -4.201929 26.050165 38.078383 -20.872206 0.000000 0.000000 0.000000 0.000000 0.000000 0.000000 -90.732143 16.215351 24.938478 105.072915 -25.061452 30.926770 -0.483125 -5.828307 -6.764773 27.638248 5.019631 17.252762 0.000000 0.000000 0.000000 0.000000 0.000000 0.000000 -6.435523 -14.457174 -25.612339 1.835151 19.818083 1.572404 -4.753133 -7.756013 4.941553 0.000000 0.000000 0.000000 3.480154 4.065187 -23.607974 -1.270641 -6.344527 -0.818135 -3.309315 7.472167 -4.536529 0.000000 0.000000 0.000000
7.301995 68.761218 342.801660 2.838215 2.981581 19.752323 0.108470 1.098671 -19.733875 0.355474 0.403935 0.176347 -2.336115 -2.184199 -0.183508 0.000000 0.000000 0.000000 -32.311114 37.717415 10.697193 -47.042652 0.028923 -23.303788 3.247371 -4.161789 -3.880714 15.277156 10.437226 -19.656099 0.000000 0.000000 0.000000 0.000000 0.000000 0.000000 -90.121848 14.585995 21.576145 110.301725 -21.663328 33.477835 8.414709 -6.800219 -0.627680 21.189879 6.737654 13.691127 0.000000 0.000000 0.000000 0.000000 0.000000 0.000000 -8.947827 -17.680835 -21.381893 3.428607 22.634620 1.254491 -4.828250 -8.096356 5.016807 0.000000 0.000000 0.000000 -0.291110 3.110259 -19.053033 1.058185 -5.214889 -0.470621 -1.545956 10.439440 -4.938975 0.000000 0.000000 0.000000
7.759307 68.753948 341.528468 3.504817 4.184176 17.493729 -0.334708 0.466752 -17.497711 0.125231 0.513591 0.167741 -1.951531 -0.628358 -0.046237 0.000000 0.000000 0.000000 -38.029413 40.573774 13.837235 -29.988042 2.176377 -22.613954 7.180761 3.865029 -2.213889 -1.307095 -13.896967 -24.251795 0.000000 0.000000 0.000000 0.000000 0.000000 0.000000 -87.003517 14.770615 20.000942 116.911364 -19.918224 38.169610 12.142952 2.900808 8.218167 16.206852 -3.158084 8.572941 0.000000 0.000000 0.000000 0.000000 0.000000 0.000000 -10.492363 -21.453839 -19.675901 3.945185 25.652836 1.098704 -5.037815 -8.346213 4.810254 0.000000 0.000000 0.000000 -3.655826 0.528276 -17.195612 3.242643 -3.019184 -0.099692 -2.045846 11.144164 -5.317519 0.000000 0.000000 0.000000
7.908561 68.534819 340.618717 3.656123 5.045028 17.054107 -0.204843 0.485867 -17.078063 -0.073716 0.171463 0.163930 -1.790907 -0.412327 0.000648 0.000000 0.000000 0.000000 -37.749801 37.475710 12.777184 -22.328832 7.362618 -19.637638 15.436172 6.681825 -0.612420 -18.636334 -25.132375 -31.791130 0.000000 0.000000 0.000000 0.000000 0.000000 0.000000 -79.858404 15.271726 17.675289 114.853270 -18.961700 39.947908 7.787209 11.844398 11.545705 19.758531 -15.069188 9.724387 0.000000 0.000000 0.000000 0.000000 0.000000 0.000000 -12.050890 -23.852683 -19.801022 5.179782 27.627431 0.748613 -5.619953 -8.480501 4.957398 0.000000 0.000000 0.000000 -5.252719 -1.565635 -17.108403 4.371749 -1.467677 0.085024 -3.702680 9.251941 -4.991673 0.000000 0.000000 0.000000
7.785358 68.551200 339.634753 3.441751 5.916470 22.625430 0.002215 0.273774 -22.650267 -0.209600 -0.217761 0.155164 -0.860044 0.733482 -0.001918 0.000000 0.000000 0.000000 -31.802124 28.494231 8.348977 -22.195240 16.370422 -14.751992 15.804348 6.069601 -0.426144 -23.706583 -29.224867 -34.123196 0.000000 0.000000 0.000000 0.000000 0.000000 0.000000 -71.036298 16.249059 15.799316 110.879544 -17.422065 42.849499 7.998894 15.347480 12.735088 20.190402 -18.926894 10.694833 0.000000 0.000000 0.000000 0.000000 0.000000 0.000000 -15.121681 -24.208634 -26.141417 5.687126 28.465372 0.560686 -6.053891 -8.376823 5.099044 0.000000 0.000000 0.000000 -6.819758 -4.275434 -23.211960 4.945708 1.140386 0.288441 -6.593719 5.933463 -4.701509 0.000000 0.000000 0.000000
7.444045 68.707343 339.571558 3.121614 5.808671 26.438594 0.253048 0.419746 -26.451401 -0.151781 -0.165830 0.153916 0.255238 2.011937 -0.084310 0.000000 0.000000 0.000000 -27.404627 22.530409 5.816388 -24.172183 23.356461 -11.718325 14.192579 5.241843 -0.592048 -25.539002 -29.448085 -35.987157 0.000000 0.000000 0.000000 0.000000 0.000000 0.000000 -62.797571 17.221881 14.284721 108.890892 -15.921306 46.044821 8.908705 16.607110 12.175354 21.818772 -17.764532 12.986299 0.000000 0.000000 0.000000 0.000000 0.000000 0.000000 -16.118433 -22.918081 -30.022429 5.799229 28.006050 0.544810 -6.273474 -8.285249 5.186562 0.000000 0.000000 0.000000 -6.681497 -4.646671 -27.076462 4.776196 1.735964 0.326092 -8.275547 4.170001 -4.621008 0.000000 0.000000 0.000000
6.869160 68.964999 339.867136 2.550522 5.264699 31.539648 0.689241 0.657077 -31.529812 0.014839 0.003745 0.157029 1.583855 3.507434 -0.211348 0.000000 0.000000 0.000000 -20.994114 14.294959 3.033724 -31.028909 31.613785 -6.585810 11.559100 3.950669 -1.080295 -24.582498 -26.025362 -36.274436 0.000000 0.000000 0.000000 0.000000 0.000000 0.000000 -52.611674 18.455304 12.569989 105.578058 -14.334556 49.347210 8.618978 15.925830 10.081741 24.372855 -13.335454 15.107014 0.000000 0.000000 0.000000 0.000000 0.000000 0.000000 -16.274782 -20.393728 -34.836362 5.601112 26.628416 0.658656 -6.444987 -8.143615 5.237489 0.000000 0.000000 0.000000 -5.600692 -4.570858 -32.064275 4.012926 1.859966 0.329278 -10.050044 2.142407 -4.540367 0.000000 0.000000 0.000000
